<svg width="36" height="36" viewBox="0 0 36 36" fill="none" xmlns="http://www.w3.org/2000/svg">
<g clip-path="url(#clip0)">
<path d="M18.0002 36C27.9414 36 36.0002 27.941 36.0001 17.9999C36 8.05875 27.941 -4.72706e-05 17.9999 4.49997e-05C8.05878 0.00013727 -1.51997e-05 8.05908 7.70706e-05 18.0002C0.000169341 27.9413 8.05911 36.0001 18.0002 36ZM17.9999 2.25004C26.6984 2.24996 33.75 9.3014 33.7501 17.9999C33.7502 26.6984 26.6987 33.75 18.0002 33.75C9.30172 33.7501 2.25016 26.6987 2.25008 18.0002C2.25 9.30169 9.30143 2.25013 17.9999 2.25004Z" fill="#FF7A00"/>
<path d="M20.5876 27.7875L22.1738 26.2012L13.9612 18.0001L22.1624 9.78748L20.5761 8.20124L11.5875 17.2013C11.1513 17.6402 11.1513 18.3488 11.5875 18.7876L20.5876 27.7875Z" fill="#FF7A00"/>
</g>
<defs>
<clipPath id="clip0">
<rect width="36" height="36" fill="white" transform="translate(36.0002 35.9999) rotate(179.999)"/>
</clipPath>
</defs>
</svg>
