<svg width="36" height="36" viewBox="0 0 36 36" fill="none" xmlns="http://www.w3.org/2000/svg">
<g clip-path="url(#clip0)">
<path d="M18 36C27.9411 36 36 27.9411 36 18C36 8.05887 27.9411 7.04529e-07 18 1.57361e-06C8.05887 2.44269e-06 -2.44269e-06 8.05887 -1.57361e-06 18C-7.04529e-07 27.9411 8.05887 36 18 36ZM18 2.25C26.6985 2.25 33.75 9.3015 33.75 18C33.75 26.6985 26.6985 33.75 18 33.75C9.3015 33.75 2.25 26.6985 2.25 18C2.25 9.3015 9.3015 2.25 18 2.25Z" fill="#E8E8E8"/>
<path d="M20.5875 27.7875L22.1738 26.2012L13.9613 18L22.1625 9.78748L20.5763 8.20123L11.5875 17.2012C11.1513 17.64 11.1513 18.3487 11.5875 18.7875L20.5875 27.7875Z" fill="#E8E8E8"/>
</g>
<defs>
<clipPath id="clip0">
<rect width="36" height="36" fill="white" transform="translate(36 36) rotate(180)"/>
</clipPath>
</defs>
</svg>
