<svg width="36" height="36" viewBox="0 0 36 36" fill="none" xmlns="http://www.w3.org/2000/svg">
<path d="M18 0C8.05887 0 0 8.05887 0 18C0 27.9411 8.05887 36 18 36C27.9411 36 36 27.9411 36 18C36 8.05887 27.9411 0 18 0ZM18 33.75C9.3015 33.75 2.25 26.6985 2.25 18C2.25 9.3015 9.3015 2.25 18 2.25C26.6985 2.25 33.75 9.3015 33.75 18C33.75 26.6985 26.6985 33.75 18 33.75Z" fill="#FF7A00"/>
<path d="M15.4124 8.21252L13.8262 9.79877L22.0387 18L13.8374 26.2125L15.4237 27.7988L24.4124 18.7988C24.8486 18.36 24.8486 17.6513 24.4124 17.2125L15.4124 8.21252Z" fill="#FF7A00"/>
</svg>
